<?xml version="1.0" standalone="no"?>
<!DOCTYPE svg PUBLIC "-//W3C//DTD SVG 20010904//EN"
 "http://www.w3.org/TR/2001/REC-SVG-20010904/DTD/svg10.dtd">
<svg version="1.0" xmlns="http://www.w3.org/2000/svg"
 width="260.000000pt" height="260.000000pt" viewBox="0 0 260.000000 260.000000"
 preserveAspectRatio="xMidYMid meet">
<metadata>
Created by potrace 1.14, written by Peter Selinger 2001-2017
</metadata>
<g transform="translate(0.000000,260.000000) scale(0.100000,-0.100000)"
fill="#000000" stroke="none">
<path d="M1105 2574 c-414 -65 -771 -328 -964 -712 -30 -60 -84 -209 -95 -262
-3 -14 -7 -36 -11 -50 -20 -92 -28 -343 -13 -435 32 -196 86 -344 188 -509 39
-65 46 -74 114 -155 188 -223 471 -382 771 -435 75 -13 359 -15 410 -3 49 12
72 17 95 21 61 11 174 52 275 101 337 163 587 470 684 839 30 116 35 164 35
336 -1 129 -5 174 -26 265 -85 365 -304 662 -625 846 -119 68 -277 126 -392
145 -18 3 -43 8 -55 11 -51 12 -306 10 -391 -3z"/>
</g>
</svg>
