<svg version="1.0" xmlns="http://www.w3.org/2000/svg" width="346.667" height="346.667" viewBox="0 0 260 260"><path d="M110.5 2.6C69.1 9.1 33.4 35.4 14.1 73.8c-3 6-8.4 20.9-9.5 26.2-.3 1.4-.7 3.6-1.1 5-2 9.2-2.8 34.3-1.3 43.5 3.2 19.6 8.6 34.4 18.8 50.9 3.9 6.5 4.6 7.4 11.4 15.5 18.8 22.3 47.1 38.2 77.1 43.5 7.5 1.3 35.9 1.5 41 .3 4.9-1.2 7.2-1.7 9.5-2.1 6.1-1.1 17.4-5.2 27.5-10.1 33.7-16.3 58.7-47 68.4-83.9 3-11.6 3.5-16.4 3.5-33.6-.1-12.9-.5-17.4-2.6-26.5-8.5-36.5-30.4-66.2-62.5-84.6-11.9-6.8-27.7-12.6-39.2-14.5-1.8-.3-4.3-.8-5.5-1.1-5.1-1.2-30.6-1-39.1.3z"/></svg>